<svg xmlns="http://www.w3.org/2000/svg" xmlns:xlink="http://www.w3.org/1999/xlink" width="46" height="45" viewBox="0 0 46 45">
    <defs>
        <path id="a" d="M0 0h38.32v45H0z"/>
    </defs>
    <g fill="none" fill-rule="evenodd">
        <g transform="translate(4)">
            <mask id="b" fill="#fff">
                <use xlink:href="#a"/>
            </mask>
            <path fill="#EBB969" d="M36.297 30.051c-1.21 3.277-3.039 6.128-5.437 8.471-2.73 2.666-6.307 4.784-10.627 6.296-.143.049-.29.089-.439.12A3.403 3.403 0 0 1 19.2 45h-.039c-.21 0-.423-.021-.634-.062a3.774 3.774 0 0 1-.435-.119c-4.326-1.509-7.906-3.626-10.639-6.293-2.4-2.342-4.229-5.191-5.436-8.469C-.18 24.097-.056 17.531.046 12.255v-.081c.021-.435.034-.894.041-1.398a4.77 4.77 0 0 1 4.491-4.673c5.174-.289 9.176-1.976 12.596-5.31l.03-.027a2.878 2.878 0 0 1 3.913 0l.03.027c3.421 3.334 7.422 5.021 12.596 5.31 2.482.138 4.455 2.191 4.491 4.673.008.508.021.964.042 1.398v.034c.1 5.286.225 11.865-1.979 17.843" mask="url(#b)"/>
        </g>
        <path fill="#EBB969" d="M40.297 30.051c-1.21 3.277-3.039 6.128-5.437 8.471-2.73 2.666-6.307 4.784-10.627 6.296-.143.049-.29.089-.439.12A3.403 3.403 0 0 1 23.2 45V0a2.884 2.884 0 0 1 1.918.766l.03.027c3.421 3.334 7.422 5.021 12.596 5.31 2.482.138 4.455 2.191 4.491 4.673.008.508.021.964.042 1.398v.034c.1 5.286.225 11.865-1.979 17.843" opacity=".5" style="mix-blend-mode:multiply"/>
        <path fill="#FFF" d="M34.375 22.5c0 6.17-5.01 11.193-11.176 11.215h-.039c-6.183 0-11.216-5.03-11.216-11.215 0-6.184 5.033-11.215 11.216-11.215h.04c6.164.022 11.175 5.044 11.175 11.215"/>
        <path fill="#F5F5F5" d="M34.375 22.5c0 6.17-5.01 11.193-11.176 11.215v-22.43c6.165.022 11.176 5.044 11.176 11.215"/>
        <path fill="#15499B" d="M28.25 20.885l-5.05 5.052-1.093 1.091a1.312 1.312 0 0 1-.933.386c-.338 0-.676-.128-.934-.386l-2.346-2.347a1.32 1.32 0 1 1 1.866-1.867l1.414 1.413 5.21-5.209a1.32 1.32 0 1 1 1.866 1.867"/>
        <path fill="#15499B" d="M28.25 20.885l-5.05 5.052v-3.736l3.183-3.183a1.32 1.32 0 1 1 1.867 1.867"/>
    </g>
</svg>
