<svg xmlns="http://www.w3.org/2000/svg" xmlns:xlink="http://www.w3.org/1999/xlink" width="46" height="45" viewBox="0 0 46 45">
    <defs>
        <path id="a" d="M.313 0h22.015v45H.313z"/>
        <path id="c" d="M.32.116h11.008V45H.32z"/>
        <path id="e" d="M0 .12h7.28V15H0z"/>
        <path id="g" d="M0 .12h7.28V15H0z"/>
        <path id="i" d="M.64.158h3.64V15H.64z"/>
    </defs>
    <g fill="none" fill-rule="evenodd">
        <g transform="translate(12)">
            <mask id="b" fill="#fff">
                <use xlink:href="#a"/>
            </mask>
            <path fill="#EBB969" d="M22.174 21.594L11.911 44.271c-.134.3-.347.5-.59.613-.747.353-1.782-.118-1.782-1.127V27.594c0-.942-.763-1.705-1.705-1.705H2.02a1.705 1.705 0 0 1-1.535-2.445L11.32.965l.125-.261c.574-1.188 2.361-.781 2.361.539v16.239c0 .94.764 1.704 1.705 1.704h5.11a1.705 1.705 0 0 1 1.553 2.408" mask="url(#b)"/>
        </g>
        <g opacity=".5" style="mix-blend-mode:multiply" transform="translate(23)">
            <mask id="d" fill="#fff">
                <use xlink:href="#c"/>
            </mask>
            <path fill="#EBB969" d="M11.174 21.71L.911 44.387a1.19 1.19 0 0 1-.59.613V1.081l.124-.26c.574-1.189 2.361-.782 2.361.538V17.6c0 .94.764 1.704 1.705 1.704h5.11a1.704 1.704 0 0 1 1.553 2.407" mask="url(#d)"/>
        </g>
        <g transform="translate(0 26)">
            <mask id="f" fill="#fff">
                <use xlink:href="#e"/>
            </mask>
            <path fill="#EBB969" d="M7.23 7.26l-3.395 7.499a.393.393 0 0 1-.195.202c-.247.117-.589-.038-.589-.372V9.244a.565.565 0 0 0-.564-.564H.564a.564.564 0 0 1-.507-.809L3.64.439l.042-.087c.19-.393.78-.258.78.179V5.9c0 .311.253.564.564.564h1.69c.41 0 .683.423.513.796" mask="url(#f)"/>
        </g>
        <path fill="#EBB969" d="M7.23 33.298l-3.395 7.5A.391.391 0 0 1 3.64 41V26.477l.042-.086c.19-.394.78-.259.78.178v5.37c0 .31.253.563.564.563h1.69c.41 0 .683.423.513.796" opacity=".5" style="mix-blend-mode:multiply"/>
        <g transform="translate(38 4)">
            <mask id="h" fill="#fff">
                <use xlink:href="#g"/>
            </mask>
            <path fill="#EBB969" d="M7.23 7.26l-3.395 7.499a.393.393 0 0 1-.195.202c-.247.117-.589-.038-.589-.372V9.244a.565.565 0 0 0-.564-.564H.564a.564.564 0 0 1-.507-.809L3.64.439l.042-.087c.19-.393.78-.258.78.179V5.9c0 .311.253.564.564.564h1.69c.41 0 .683.423.513.796" mask="url(#h)"/>
        </g>
        <g opacity=".5" style="mix-blend-mode:multiply" transform="translate(41 4)">
            <mask id="j" fill="#fff">
                <use xlink:href="#i"/>
            </mask>
            <path fill="#EBB969" d="M4.23 7.298l-3.395 7.5A.391.391 0 0 1 .64 15V.477L.681.391c.19-.394.781-.259.781.178v5.37c0 .31.252.563.564.563h1.69c.41 0 .683.423.513.796" mask="url(#j)"/>
        </g>
    </g>
</svg>
