<svg xmlns="http://www.w3.org/2000/svg" xmlns:xlink="http://www.w3.org/1999/xlink" width="51" height="45" viewBox="0 0 51 45">
    <defs>
        <path id="a" d="M0 45h50.572V0H0z"/>
    </defs>
    <g fill="none" fill-rule="evenodd">
        <path fill="#F2F2F2" d="M43.006 3.035A3.044 3.044 0 0 0 39.97 0H3.035A3.044 3.044 0 0 0 0 3.035v24.286h43.006V3.035z"/>
        <path fill="#EBB969" d="M36.935 40.223h-8.328a3.025 3.025 0 0 1-1.032-2.276v-6.578h-9.107V37.947c0 .908-.401 1.72-1.033 2.276H9.107a.76.76 0 0 0 0 1.519h27.828a.76.76 0 0 0 0-1.52"/>
        <path fill="#EBB969" d="M43.006 30.358v-3.036H0v3.036a3.044 3.044 0 0 0 3.035 3.035H39.97a3.044 3.044 0 0 0 3.036-3.035"/>
        <path fill="#E6E6E6" d="M39.97 0H22.281v27.321h20.725V3.035A3.044 3.044 0 0 0 39.97 0"/>
        <path fill="#EBB969" fill-opacity=".5" d="M22.281 27.322v14.42h14.653a.76.76 0 0 0 0-1.52h-8.327a3.021 3.021 0 0 1-1.033-2.276v-4.553H39.97a3.044 3.044 0 0 0 3.036-3.035V27.32H22.281z" style="mix-blend-mode:multiply"/>
        <path fill="#17335F" d="M23.021 29.592a.76.76 0 1 1 0 1.518.76.76 0 0 1 0-1.518"/>
        <mask id="b" fill="#fff">
            <use xlink:href="#a"/>
        </mask>
        <path fill="#FFF" d="M36.26 40.23h14.312V22.101H36.26z" mask="url(#b)"/>
        <path fill="#15499B" d="M50.572 40.23v1.908A2.871 2.871 0 0 1 47.71 45h-8.588a2.871 2.871 0 0 1-2.862-2.863V40.23h14.312zM50.572 20.193V22.1H36.26v-1.908a2.87 2.87 0 0 1 2.862-2.862h8.587a2.87 2.87 0 0 1 2.863 2.862" mask="url(#b)"/>
        <path fill="#F5F5F5" d="M43.423 40.23h7.149V22.101h-7.149z" mask="url(#b)"/>
        <path fill="#17335F" d="M43.423 45h4.287a2.87 2.87 0 0 0 2.862-2.862V40.23h-7.15V45zM47.709 17.33h-4.286v4.771h7.149v-1.909a2.87 2.87 0 0 0-2.863-2.862" mask="url(#b)"/>
    </g>
</svg>
